<svg xmlns="http://www.w3.org/2000/svg" viewBox="0 0 190 38" role="img" aria-labelledby="title desc">
  <title id="title">Scriptella</title>
  <desc id="desc">Scriptella wordmark with a butterfly inside a database cylinder</desc>
  <g stroke-linecap="round" stroke-linejoin="round">
    <g fill="none" stroke="#2ecc71" stroke-width="2.5">
      <ellipse cx="18" cy="6" rx="14" ry="4"/>
      <path d="M4 6v25c0 3 6.3 5.5 14 5.5S32 34 32 31V6"/>
      <path d="M4 30c0 3 6.3 5.5 14 5.5S32 33 32 30" opacity=".55"/>
    </g>
    <g fill="#2ecc71" stroke="#2ecc71" stroke-width=".7">
      <path d="M17 20c-2.7-6.2-7.6-7.4-8.4-4.1-.7 2.8 2.2 6.1 7.1 6.4-3.1 1.2-4.2 4-2.2 5.5 1.8 1.3 4-.7 4.5-3.8l-1-4Z"/>
      <path d="M19 20c2.7-6.2 7.6-7.4 8.4-4.1.7 2.8-2.2 6.1-7.1 6.4 3.1 1.2 4.2 4 2.2 5.5-1.8 1.3-4-.7-4.5-3.8l1-4Z"/>
      <rect x="16.75" y="18" width="2.5" height="8" rx="1.25"/>
    </g>
  </g>
  <text x="41" y="30" fill="#e8e8e8" font-family="Inter, system-ui, -apple-system, BlinkMacSystemFont, 'Segoe UI', sans-serif" font-size="32" font-weight="700" letter-spacing="-.7">scriptella</text>
</svg>
